<?xml version="1.0" encoding="utf-8"?>
<!-- Generator: Adobe Illustrator 24.1.2, SVG Export Plug-In . SVG Version: 6.00 Build 0)  -->
<svg version="1.1" id="Layer_1" xmlns="http://www.w3.org/2000/svg" xmlns:xlink="http://www.w3.org/1999/xlink" x="0px" y="0px"
	 viewBox="0 0 813.7 111.2" style="enable-background:new 0 0 813.7 111.2;" xml:space="preserve">
<style type="text/css">
	.st0{fill:#FFFFFF;}
	.st1{fill:#02319B;}
	.st2{fill:none;stroke:#FF0000;stroke-width:1.1967;stroke-miterlimit:10;}
	.st3{fill:none;}
	.st4{fill:#B06315;}
	.st5{clip-path:url(#SVGID_14_);}
	.st6{fill:#B58931;}
</style>
<g>
	<g>
		<path class="st1" d="M155.9,0H84.3L55.8,43.7L33,78.6H21.2L0,111.2h173.3V78.6h-17.4V0z M110.9,76.6c0,1.1-0.9,2-2,2
			c-10.8,0-21.6,0-32.3,0c-1.2,0-1.9-1.3-1.3-2.3C81.4,65.9,94,45.6,101,34c0.5-0.8,1.4-1.3,2.4-1.3h6.5c0.5,0,1,0.4,1,1V76.6z"/>
		<path class="st1" d="M377.5,78.6c-3.4,0-6.2-2.8-6.2-6.2V38.8c0-3.4,2.8-6.2,6.2-6.2h54.1L413.8,0h-71.4l-19.8,20.5v70.3
			l19.6,20.3h132.7L457,78.6H377.5z"/>
		<path class="st1" d="M185.4,0v32.6h68.1c1.4,0,2.5,1.1,2.5,2.5v10.1c0,1.4-1.1,2.5-2.5,2.5h-31.6c-1.4,0-2.5,1.1-2.5,2.5v10.9
			c0,1.4,1.1,2.5,2.5,2.5h31.6c1.4,0,2.5,1.1,2.5,2.5v10.1c0,1.4-1.1,2.5-2.5,2.5h-68.1v32.5h104.7l19.6-20.3V20.5L290,0H185.4z"/>
		<path class="st1" d="M603.5,28.5h-5v4.4h5c0.6,0,1.1-0.2,1.5-0.6c0.4-0.4,0.6-0.9,0.6-1.5c0-0.7-0.2-1.2-0.6-1.6
			C604.6,28.7,604.1,28.5,603.5,28.5z"/>
		<polygon class="st1" points="596.9,78.6 602.6,78.6 599.7,70.4 		"/>
		<path class="st1" d="M569.8,70.1h-5v4.4h5c0.6,0,1.1-0.2,1.5-0.6c0.4-0.4,0.6-0.9,0.6-1.5c0-0.7-0.2-1.2-0.6-1.6
			C570.9,70.3,570.4,70.1,569.8,70.1z"/>
		<path class="st1" d="M427.7,0l61.1,111.2h325V0H427.7z M762.1,14.9h3.9c0.4,0,0.6,0.2,0.8,0.5c0.2,0.7,0.7,1,1.5,1s1.4-0.3,1.7-1
			c0.2-0.3,0.4-0.5,0.8-0.5h3.9c0.5,0,0.8,0.2,0.8,0.5c0,1.2-0.6,2.3-1.8,3.2c-1.2,0.9-3,1.3-5.2,1.3s-4-0.4-5.2-1.3
			s-1.8-1.9-1.8-3.2C761.4,15.1,761.6,14.9,762.1,14.9z M518.3,47.8V22.2c0-0.3,0.1-0.5,0.3-0.8c0.2-0.2,0.5-0.3,0.8-0.3H545
			c0.3,0,0.5,0.1,0.8,0.3c0.2,0.2,0.3,0.5,0.3,0.8v25.6c0,0.3-0.1,0.5-0.3,0.8c-0.2,0.2-0.5,0.3-0.8,0.3h-7.8
			c-0.3,0-0.5-0.1-0.8-0.3c-0.2-0.2-0.3-0.5-0.3-0.8V29.7h-7.9v18.1c0,0.3-0.1,0.5-0.3,0.8c-0.2,0.2-0.5,0.3-0.8,0.3h-7.8
			c-0.3,0-0.5-0.1-0.8-0.3C518.4,48.4,518.3,48.1,518.3,47.8z M548.5,90.2c-0.2,0.2-0.4,0.3-0.6,0.3h-10.2c-0.6,0-1.1-0.2-1.4-0.6
			l-6.9-8.5v8.1c0,0.3-0.1,0.5-0.3,0.8c-0.2,0.2-0.5,0.3-0.8,0.3h-8.2c-0.3,0-0.5-0.1-0.8-0.3c-0.2-0.2-0.3-0.5-0.3-0.8V63.8
			c0-0.3,0.1-0.5,0.3-0.8c0.2-0.2,0.5-0.3,0.8-0.3h8.2c0.3,0,0.5,0.1,0.8,0.3c0.2,0.2,0.3,0.5,0.3,0.8v7.5l6.3-7.9
			c0.4-0.4,0.9-0.7,1.5-0.7h9.6c0.2,0,0.4,0.1,0.6,0.3c0.2,0.2,0.3,0.4,0.3,0.6c0,0.2-0.1,0.4-0.2,0.6l-9.4,11.5l10.7,13.5
			c0.1,0.2,0.2,0.3,0.2,0.6C548.7,89.8,548.7,90,548.5,90.2z M552.9,48.5c-0.2-0.2-0.3-0.5-0.3-0.8V22.2c0-0.3,0.1-0.5,0.3-0.8
			c0.2-0.2,0.5-0.3,0.8-0.3h24.7c0.3,0,0.5,0.1,0.8,0.3c0.2,0.2,0.3,0.5,0.3,0.8v5.6c0,0.3-0.1,0.5-0.3,0.8
			c-0.2,0.2-0.5,0.3-0.8,0.3h-15.4v2.5h13.2c0.3,0,0.5,0.1,0.8,0.3s0.3,0.5,0.3,0.8v5.2c0,0.3-0.1,0.5-0.3,0.8s-0.5,0.3-0.8,0.3
			h-13.2v2.5h15.8c0.3,0,0.5,0.1,0.8,0.3c0.2,0.2,0.3,0.5,0.3,0.8v5.6c0,0.3-0.1,0.5-0.3,0.8c-0.2,0.2-0.5,0.3-0.8,0.3h-25.1
			C553.4,48.9,553.2,48.8,552.9,48.5z M579.4,79.3c-1.9,1.7-5,2.5-9.4,2.5h-5.2v7.6c0,0.3-0.1,0.5-0.3,0.8c-0.2,0.2-0.5,0.3-0.8,0.3
			h-8.5c-0.3,0-0.5-0.1-0.8-0.3c-0.2-0.2-0.3-0.5-0.3-0.8V63.8c0-0.3,0.1-0.5,0.3-0.8c0.2-0.2,0.5-0.3,0.8-0.3H570
			c3.8,0,6.7,0.9,8.9,2.7c2.2,1.8,3.3,4.2,3.3,7C582.2,75.3,581.2,77.6,579.4,79.3z M615.5,90.2c-0.2,0.2-0.4,0.3-0.6,0.3h-7.5
			c-0.8,0-1.4-0.4-1.8-1.3l-1-2.8h-9.7l-1,2.8c-0.3,0.9-0.9,1.3-1.8,1.3h-7.5c-0.2,0-0.4-0.1-0.6-0.3c-0.2-0.2-0.3-0.3-0.3-0.5
			c0-0.2,0-0.3,0-0.4l8.6-25.3c0.2-0.9,0.8-1.3,1.8-1.3h11c1,0,1.5,0.4,1.8,1.3l8.6,25.3c0,0.1,0,0.2,0,0.4
			C615.7,89.9,615.6,90,615.5,90.2z M613.1,37.6c-1.9,1.7-5,2.5-9.4,2.5h-5.2v7.6c0,0.3-0.1,0.5-0.3,0.8c-0.2,0.2-0.5,0.3-0.8,0.3
			h-8.5c-0.3,0-0.5-0.1-0.8-0.3c-0.2-0.2-0.3-0.5-0.3-0.8V22.2c0-0.3,0.1-0.5,0.3-0.8c0.2-0.2,0.5-0.3,0.8-0.3h14.8
			c3.8,0,6.7,0.9,8.9,2.7c2.2,1.8,3.3,4.2,3.3,7C615.9,33.7,615,36,613.1,37.6z M646.8,89.4c0,0.3-0.1,0.5-0.3,0.8
			c-0.2,0.2-0.5,0.3-0.8,0.3h-7.4c-0.3,0-0.5-0.1-0.8-0.3c-0.2-0.2-0.3-0.5-0.3-0.8V78.6l-8.6,11c-0.4,0.6-1,0.8-1.6,0.8h-6.4
			c-0.3,0-0.5-0.1-0.8-0.3c-0.2-0.2-0.3-0.5-0.3-0.8V63.8c0-0.3,0.1-0.5,0.3-0.8c0.2-0.2,0.5-0.3,0.8-0.3h7.4c0.3,0,0.5,0.1,0.8,0.3
			c0.2,0.2,0.3,0.5,0.3,0.8v11.7l8.6-11.9c0.4-0.5,0.9-0.8,1.5-0.8h6.4c0.3,0,0.5,0.1,0.8,0.3c0.2,0.2,0.3,0.5,0.3,0.8V89.4z
			 M626.6,57.1c0-0.3,0.3-0.5,0.8-0.5h3.9c0.4,0,0.6,0.2,0.8,0.5c0.2,0.7,0.7,1,1.5,1c0.8,0,1.4-0.3,1.7-1c0.2-0.3,0.4-0.5,0.8-0.5
			h3.9c0.5,0,0.8,0.2,0.8,0.5c0,1.2-0.6,2.3-1.8,3.2s-3,1.3-5.2,1.3c-2.3,0-4-0.4-5.2-1.3S626.6,58.3,626.6,57.1z M648.6,47.8
			c0,0.3-0.1,0.5-0.3,0.8c-0.2,0.2-0.5,0.3-0.8,0.3h-7.2c-0.3,0-0.5-0.1-0.8-0.3c-0.2-0.2-0.3-0.5-0.3-0.8V35.5l-2.9,5.7
			c-0.2,0.3-0.4,0.6-0.7,0.7c-0.3,0.2-0.6,0.3-1,0.3H632c-0.4,0-0.8-0.1-1.1-0.4c-0.3-0.2-0.5-0.4-0.6-0.6l-2.9-5.7v12.3
			c0,0.3-0.1,0.5-0.3,0.8c-0.2,0.2-0.5,0.3-0.8,0.3h-7.2c-0.3,0-0.5-0.1-0.8-0.3c-0.2-0.2-0.3-0.5-0.3-0.8V22.2
			c0-0.3,0.1-0.5,0.3-0.8c0.2-0.2,0.5-0.3,0.8-0.3h7.3c0.7,0,1.3,0.4,1.7,1.1l5.2,9.5l5.2-9.5c0.4-0.7,1-1.1,1.7-1.1h7.3
			c0.3,0,0.5,0.1,0.8,0.3c0.2,0.2,0.3,0.5,0.3,0.8V47.8z M664.5,40.3c0.7,0.6,1.7,0.8,2.9,0.8c1.2,0,2-0.2,2.6-0.5
			c0.5-0.3,1-0.9,1.3-1.5c0.4-0.7,0.8-1,1.4-1h8.6c0.2,0,0.4,0.1,0.6,0.3c0.2,0.2,0.3,0.4,0.3,0.6c0,2.4-1.2,4.6-3.5,6.6
			c-1.2,1-2.7,1.8-4.6,2.4c-1.9,0.6-4.2,0.9-6.8,0.9c-2.6,0-5-0.4-7.2-1.2c-2.2-0.8-3.9-2.1-5.3-3.9c-1.3-1.8-2-4-2-6.6v-4.6
			c0-2.6,0.7-4.8,2-6.6c2.5-3.4,6.8-5,12.7-5c2.4,0,4.6,0.3,6.5,0.9c1.9,0.6,3.5,1.4,4.6,2.4c2.3,2,3.5,4.2,3.5,6.6
			c0,0.2-0.1,0.4-0.3,0.6c-0.2,0.2-0.4,0.3-0.6,0.3h-8.6c-0.6,0-1-0.3-1.4-1c-0.4-0.7-0.8-1.2-1.3-1.5c-0.5-0.3-1.4-0.5-2.6-0.5
			c-1.2,0-2.1,0.3-2.9,0.8c-0.7,0.6-1.1,1.3-1.1,2.4v6C663.4,39,663.8,39.8,664.5,40.3z M717,48.6c-0.2,0.2-0.4,0.3-0.6,0.3h-10.2
			c-0.6,0-1.1-0.2-1.4-0.6l-6.9-8.5v8.1c0,0.3-0.1,0.5-0.3,0.8c-0.2,0.2-0.5,0.3-0.8,0.3h-8.2c-0.3,0-0.5-0.1-0.8-0.3
			c-0.2-0.2-0.3-0.5-0.3-0.8V22.2c0-0.3,0.1-0.5,0.3-0.8c0.2-0.2,0.5-0.3,0.8-0.3h8.2c0.3,0,0.5,0.1,0.8,0.3
			c0.2,0.2,0.3,0.5,0.3,0.8v7.5l6.3-7.9c0.4-0.4,0.9-0.7,1.5-0.7h9.6c0.2,0,0.4,0.1,0.6,0.3c0.2,0.2,0.3,0.4,0.3,0.6
			s-0.1,0.4-0.2,0.6L706.4,34l10.7,13.5c0.1,0.2,0.2,0.3,0.2,0.6C717.3,48.2,717.2,48.4,717,48.6z M748,47.8c0,0.3-0.1,0.5-0.3,0.8
			c-0.2,0.2-0.5,0.3-0.8,0.3h-7.4c-0.3,0-0.5-0.1-0.8-0.3c-0.2-0.2-0.3-0.5-0.3-0.8V37l-8.6,11c-0.4,0.6-1,0.8-1.6,0.8h-6.4
			c-0.3,0-0.5-0.1-0.8-0.3c-0.2-0.2-0.3-0.5-0.3-0.8V22.2c0-0.3,0.1-0.5,0.3-0.8c0.2-0.2,0.5-0.3,0.8-0.3h7.4c0.3,0,0.5,0.1,0.8,0.3
			c0.2,0.2,0.3,0.5,0.3,0.8v11.7l8.6-11.9c0.4-0.5,0.9-0.8,1.5-0.8h6.4c0.3,0,0.5,0.1,0.8,0.3c0.2,0.2,0.3,0.5,0.3,0.8V47.8z
			 M781.7,47.8c0,0.3-0.1,0.5-0.3,0.8c-0.2,0.2-0.5,0.3-0.8,0.3h-7.4c-0.3,0-0.5-0.1-0.8-0.3c-0.2-0.2-0.3-0.5-0.3-0.8V37l-8.6,11
			c-0.4,0.6-1,0.8-1.6,0.8h-6.4c-0.3,0-0.5-0.1-0.8-0.3c-0.2-0.2-0.3-0.5-0.3-0.8V22.2c0-0.3,0.1-0.5,0.3-0.8
			c0.2-0.2,0.5-0.3,0.8-0.3h7.4c0.3,0,0.5,0.1,0.8,0.3c0.2,0.2,0.3,0.5,0.3,0.8v11.7l8.6-11.9c0.4-0.5,0.9-0.8,1.5-0.8h6.4
			c0.3,0,0.5,0.1,0.8,0.3c0.2,0.2,0.3,0.5,0.3,0.8V47.8z"/>
	</g>
</g>
</svg>
